<?xml version="1.0" encoding="UTF-8"?>
<svg id="_Слой_1" data-name="Слой 1" xmlns="http://www.w3.org/2000/svg" version="1.1" xmlns:xlink="http://www.w3.org/1999/xlink" viewBox="0 0 1024 1024">
  <defs>
    <style>
      .cls-1 {
        stroke: url(#_Безымянный_градиент_3-2);
      }

      .cls-1, .cls-2, .cls-3, .cls-4, .cls-5, .cls-6, .cls-7, .cls-8 {
        fill: none;
      }

      .cls-1, .cls-6 {
        stroke-width: 13px;
      }

      .cls-9 {
        fill: url(#_Безымянный_градиент_3);
      }

      .cls-9, .cls-10, .cls-11, .cls-2, .cls-12, .cls-13, .cls-14 {
        stroke-width: 0px;
      }

      .cls-10 {
        fill: #050509;
      }

      .cls-11 {
        fill: url(#_Безымянный_градиент);
      }

      .cls-15 {
        filter: url(#glowB-3);
      }

      .cls-16 {
        filter: url(#glowB-4);
      }

      .cls-16, .cls-3, .cls-17, .cls-5, .cls-7, .cls-8 {
        isolation: isolate;
      }

      .cls-16, .cls-17 {
        opacity: .9;
      }

      .cls-3 {
        stroke: url(#_Безымянный_градиент_3-5);
      }

      .cls-3, .cls-5 {
        opacity: .9;
      }

      .cls-3, .cls-5, .cls-8 {
        stroke-width: 4px;
      }

      .cls-4 {
        stroke: #f2faff;
        stroke-width: 9px;
      }

      .cls-4, .cls-7, .cls-8 {
        stroke-linecap: round;
      }

      .cls-18 {
        clip-path: url(#clippath-1);
      }

      .cls-12 {
        fill: url(#_Безымянный_градиент_2-2);
      }

      .cls-12, .cls-13 {
        display: none;
      }

      .cls-13 {
        fill: url(#_Безымянный_градиент_2);
      }

      .cls-19 {
        filter: url(#glowB);
      }

      .cls-17 {
        filter: url(#glowB-2);
      }

      .cls-20 {
        filter: url(#soft-2);
      }

      .cls-20, .cls-21 {
        opacity: .5;
      }

      .cls-5 {
        stroke: url(#_Безымянный_градиент_3-3);
      }

      .cls-22 {
        clip-path: url(#clippath);
      }

      .cls-21 {
        filter: url(#soft);
      }

      .cls-14 {
        fill: url(#_Безымянный_градиент-2);
      }

      .cls-6 {
        stroke: url(#_Безымянный_градиент_3-4);
      }

      .cls-7 {
        opacity: .6;
        stroke-width: 6px;
      }

      .cls-7, .cls-8 {
        stroke: #b9e4ff;
      }

      .cls-8 {
        opacity: .3;
      }
    </style>
    <linearGradient id="_Безымянный_градиент_3" data-name="Безымянный градиент 3" x1="44.7" y1="512" x2="979.3" y2="512" gradientUnits="userSpaceOnUse">
      <stop offset="0" stop-color="#c77be8" stop-opacity=".7"/>
      <stop offset=".5" stop-color="#9ad9ff"/>
      <stop offset="1" stop-color="#eaf6ff"/>
    </linearGradient>
    <clipPath id="clippath">
      <path class="cls-2" d="M61.7,974.3c53.3-53.3,106.6-106.6,159.9-159.9,250.7-250.7,501.5-501.5,752.2-752.2,0,0,0,0,0,0,1.9,3.7,108.8,215.7,115.4,405.3,1.2,34.3,8.1,231.6-123.5,383.5-173,199.8-467.9,185.4-550.2,181.4-119.4-5.8-471.6-78.5-353.9-58.1Z"/>
    </clipPath>
    <linearGradient id="_Безымянный_градиент" data-name="Безымянный градиент" x1="213.9" y1="931.8" x2="214.5" y2="931" gradientTransform="translate(-201762 879834.2) scale(944 -944)" gradientUnits="userSpaceOnUse">
      <stop offset="0" stop-color="#8e45d8"/>
      <stop offset=".3" stop-color="#b24fd6"/>
      <stop offset=".7" stop-color="#6f58ea"/>
      <stop offset="1" stop-color="#4e63e4"/>
    </linearGradient>
    <radialGradient id="_Безымянный_градиент_2" data-name="Безымянный градиент 2" cx="214.3" cy="931.5" fx="214.3" fy="931.5" r=".5" gradientTransform="translate(-201762 879834.2) scale(944 -944)" gradientUnits="userSpaceOnUse">
      <stop offset="0" stop-color="#000" stop-opacity=".9"/>
      <stop offset=".4" stop-color="#000" stop-opacity=".3"/>
      <stop offset=".7" stop-color="#000" stop-opacity="0"/>
    </radialGradient>
    <filter id="soft" x="-40%" y="-40%" width="180%" height="180%">
      <feGaussianBlur stdDeviation="7"/>
    </filter>
    <filter id="glowB" x="-70%" y="-70%" width="240%" height="240%">
      <feGaussianBlur result="b" stdDeviation="22"/>
      <feMerge>
        <feMergeNode in="b"/>
        <feMergeNode in="SourceGraphic"/>
      </feMerge>
    </filter>
    <linearGradient id="_Безымянный_градиент_3-2" data-name="Безымянный градиент 3" x1="214" y1="931.6" x2="214" y2="931.6" gradientTransform="translate(-91080 399236.9) scale(428 -428)" xlink:href="#_Безымянный_градиент_3"/>
    <linearGradient id="_Безымянный_градиент_3-3" data-name="Безымянный градиент 3" x1="214" y1="932.1" x2="214" y2="931.1" gradientTransform="translate(-88506 388060.2) scale(416 -416)" xlink:href="#_Безымянный_градиент_3"/>
    <filter id="glowB-2" data-name="glowB" x="-70%" y="-70%" width="240%" height="240%">
      <feGaussianBlur result="b" stdDeviation="22"/>
      <feMerge>
        <feMergeNode in="b"/>
        <feMergeNode in="SourceGraphic"/>
      </feMerge>
    </filter>
    <clipPath id="clippath-1">
      <path class="cls-2" d="M962.5,49.4C658.4,353.6,354.3,657.7,50.2,961.8c0,0-108.8-214.1-115.4-405.3-1.2-34.3-8.1-231.6,123.5-383.5C231.2-26.8,526.1-12.4,608.4-8.3c184,9,377.8,60.8,377.6,61.6,0,.2-12.9-2-23.6-3.9Z"/>
    </clipPath>
    <linearGradient id="_Безымянный_градиент-2" data-name="Безымянный градиент" x1="214.1" y1="932" x2="214.6" y2="931.2" xlink:href="#_Безымянный_градиент"/>
    <radialGradient id="_Безымянный_градиент_2-2" data-name="Безымянный градиент 2" cx="214.3" cy="931.5" fx="214.3" fy="931.5" xlink:href="#_Безымянный_градиент_2"/>
    <filter id="soft-2" data-name="soft" x="-40%" y="-40%" width="180%" height="180%">
      <feGaussianBlur stdDeviation="7"/>
    </filter>
    <filter id="glowB-3" data-name="glowB" x="-70%" y="-70%" width="240%" height="240%">
      <feGaussianBlur result="b" stdDeviation="22"/>
      <feMerge>
        <feMergeNode in="b"/>
        <feMergeNode in="SourceGraphic"/>
      </feMerge>
    </filter>
    <linearGradient id="_Безымянный_градиент_3-4" data-name="Безымянный градиент 3" x1="214" y1="931.6" x2="214" y2="931.6" gradientTransform="translate(-91080 399236.9) scale(428 -428)" xlink:href="#_Безымянный_градиент_3"/>
    <linearGradient id="_Безымянный_градиент_3-5" data-name="Безымянный градиент 3" x1="214" y1="932.1" x2="214" y2="931.1" gradientTransform="translate(-88506 388060.2) scale(416 -416)" xlink:href="#_Безымянный_градиент_3"/>
    <filter id="glowB-4" data-name="glowB" x="-70%" y="-70%" width="240%" height="240%">
      <feGaussianBlur result="b" stdDeviation="22"/>
      <feMerge>
        <feMergeNode in="b"/>
        <feMergeNode in="SourceGraphic"/>
      </feMerge>
    </filter>
  </defs>
  <path class="cls-9" d="M61.7,991.1c-5.4,0-10.6-2.5-13.9-7.2-4.8-6.8-4-16.1,1.9-21.9,21.4-21.2,42.7-42.4,63.4-62.9,35.8-35.6,72.7-72.6,91.2-91.2-.4-.4-.8-.8-1.3-1.3h0c-8.4-8.4-17.8-19.3-28-32.3-3.9-5-7.1-9.3-9.2-12.1-1.4-1.9-2.6-3.5-3.5-5h0c-.6-.9-15.9-22.6-28-44.6-32.9-60.1-45.6-122.4-50.5-164-5.3-45.2-2.9-76.2-2.8-77.5,2.4-29.1,11.2-87.4,42.6-152.1,13.3-27.3,29.7-53.6,47.4-76.3,26.7-34,60.7-65.2,98.3-90.2,27.8-18.5,73.7-43.8,134.7-59.6,53.9-13.9,98-14.5,124.3-14.8,23.8-.3,38.6.9,60.8,2.7,5.3.4,11,.9,17.4,1.4,101.2,7.8,152,11.7,202,3.9.7-.1,75-11.9,125.8-40.2,0,0,19.7-11,19.7-11,7.4-4.1,16.7-2.2,21.8,4.6,5.1,6.8,4.5,16.3-1.5,22.3l-61.9,61.9c-54.1,54.1-80.5,80.5-93.4,93.4,3.8,3.7,7.4,7.5,11,11.4,23.9,25.7,57.6,69,82.4,129.7,18.8,46,29.8,95.8,31.8,144,2.1,49.5-4.8,100.2-19.8,146.6-10.7,33-44.4,117.5-126.4,189.3-49.3,43.1-98.1,66.9-130.3,79.1-72.7,27.7-137.8,28.7-169,29.2-32.2.5-68.6-1.8-86-3-16.9-1.1-29.4-2.2-40.4-3.2-17.3-1.5-31-2.7-54.6-3.4-22.4-.6-43.8-.4-65.4.6-33.8,1.5-50.8,2.3-70.6,6.5-28.2,5.9-55.6,16.3-70.4,23.9l-1,.5c-3.8,2-15.5,8.1-31.1,15.8-4.2,2.1-7.7,3.8-9.9,4.9-2.4,1.2-4.9,1.7-7.4,1.7ZM271.4,791c-2.4,2.2-14.4,13.1-30.6,28.4-42.7,40.3-76.7,75.3-100.7,100.7,10.7-3.4,22.3-6.6,34.4-9.2,22.6-4.8,40.5-5.6,76.1-7.2,22.2-1,45-1.2,67.9-.6,24.6.6,39.5,2,56.7,3.5,10.8,1,23.1,2,39.6,3.1,17,1.1,52.5,3.4,83.3,2.9,29.3-.4,90.3-1.4,157.5-27,41.9-16,84.5-41.9,120-72.9,75.6-66.2,106.6-143.9,116.4-174.2,13.8-42.6,20.1-89.1,18.2-134.7-1.9-44.3-12-90.2-29.3-132.5-22.9-56-53.9-95.8-75.8-119.4-7-7.5-14.4-14.8-22-21.7-3.4-3.1-5.4-7.6-5.5-12.2,0-4.7,1.7-9.2,5-12.4.5-.5,85.5-85.5,102.7-102.7-37.5,11.7-69.5,16.7-71.6,17.1-53.9,8.4-106,4.4-209.8-3.6-6.5-.5-12.2-1-17.6-1.4-21.3-1.7-35.4-2.9-57.7-2.6-24.8.3-66.2.8-116.2,13.7-44,11.4-88.1,30.9-124.3,55-43.8,29.1-73.3,61.2-90.4,82.9-16.3,20.7-31.4,45-43.6,70.1-29,59.7-37.1,113.3-39.3,140,0,1.1-8.6,116.7,49.2,222.4,11.1,20.3,25.8,41.1,25.9,41.3,0,0,0,0,0,0,.6-.5,2-1.8,2.6-2.3C567.3,406,742,175.7,795.3,209c6.9,4.3,9.2,11.4,12,20.4,46.4,150-366.5,406.7-535.9,561.5Z"/>
  <g>
    <g class="cls-22">
      <g>
        <path class="cls-11" d="M517.8,108.5c156-9.4,272.7,104.2,289.5,121,19.3,19.3,120.5,124.6,120.3,288.8-.2,151.3-86.4,276-184.5,340.9-15.4,10.2-100.9,65.1-211.3,70.1-15.7.7-33.1.2-67.9-.7-86.8-2.3-107.2-8.3-176.6-8.5-66.5-.2-94.4,5.2-104.7,7.4-18.9,3.9-47.9,10-80,25.9-10.2,5-40.7,20.9-40.7,21h0c0-.4-19.1-259,46.3-456.1,47.9-144,187.8-396.4,409.7-409.7Z"/>
        <circle class="cls-13" cx="517.7" cy="518.2" r="409.7"/>
        <g class="cls-21">
          <path class="cls-7" d="M333.7,559.9c42.8,101.6,159.8,149.4,261.5,106.6,48.1-20.2,86.4-58.5,106.6-106.6"/>
          <path class="cls-8" d="M359.8,481.8c36.4-88.7,137.9-131.1,226.6-94.6,42.9,17.6,77,51.7,94.6,94.6"/>
        </g>
        <g class="cls-19">
          <circle class="cls-1" cx="517.8" cy="518.2" r="185.8"/>
        </g>
        <circle class="cls-10" cx="517.8" cy="518.2" r="177.1"/>
        <circle class="cls-5" cx="517.8" cy="518.2" r="180.6"/>
        <g class="cls-17">
          <path class="cls-4" d="M404.9,647.2c53.3,50.3,147,56.2,209.3,13.2,5.9-4,11.3-8.5,16.3-13.2"/>
        </g>
      </g>
    </g>
    <g class="cls-18">
      <g>
        <path class="cls-14" d="M452.3,99.8c42.9-6.6,76.9-5.2,126.4-3.1,49.3,2.1,54.1,5.9,111.6,8.5,50.9,2.3,76.4,3.4,112.9-1.2,0,0,60.5-7.6,105.5-27,21.6-9.3,37-18,37-18,3.5-1.9,6.4-3.5,8.5-4.7,2.5-1.4,8.2-4.6,8.2-4.7h0c0,.1,30.2,263-46.3,456.1-27.5,69.4-156.1,393.9-409.7,409.7-157.9,9.8-275.7-105.5-291.2-121.2-12.6-12.7-119-123.4-118.6-288.6.2-82.6,27-146.7,37.2-168.9,20-43.8,44.4-76.5,63.3-98.3,16.9-19.5,54-58.4,112.8-90.8,16.4-9.1,68.9-36.6,142.4-47.9Z"/>
        <circle class="cls-12" cx="506.3" cy="505.8" r="409.7"/>
        <g class="cls-20">
          <path class="cls-7" d="M322.2,547.5c42.8,101.6,159.8,149.4,261.5,106.6,48.1-20.2,86.4-58.5,106.6-106.6"/>
          <path class="cls-8" d="M348.3,469.3c36.4-88.7,137.9-131.1,226.6-94.6,42.9,17.6,77,51.7,94.6,94.6"/>
        </g>
        <g class="cls-15">
          <circle class="cls-6" cx="506.3" cy="505.8" r="185.8"/>
        </g>
        <circle class="cls-10" cx="506.3" cy="505.8" r="177.1"/>
        <circle class="cls-3" cx="506.3" cy="505.8" r="180.6"/>
        <g class="cls-16">
          <path class="cls-4" d="M393.4,634.8c53.3,50.3,147,56.2,209.3,13.2,5.9-4,11.3-8.5,16.3-13.2"/>
        </g>
      </g>
    </g>
  </g>
</svg>